<!--?xml version="1.0" standalone="no"?-->
              <svg id="sw-js-blob-svg" viewBox="0 0 100 100" xmlns="http://www.w3.org/2000/svg" version="1.1">
                    <defs> 
                        <linearGradient id="sw-gradient" x1="0" x2="1" y1="1" y2="0">
                            <stop id="stop1" stop-color="rgba(248, 117, 55, 1)" offset="0%"></stop>
                            <stop id="stop2" stop-color="rgba(251, 168, 31, 1)" offset="100%"></stop>
                        </linearGradient>
                    </defs>
                <path fill="url(#sw-gradient)" d="M19.2,-33.9C25,-29.9,29.9,-25,34.6,-19.2C39.3,-13.4,43.8,-6.7,44.9,0.6C46,7.9,43.6,15.9,39.1,22C34.6,28.2,28,32.6,21.1,35.1C14.2,37.5,7.1,38.1,-0.4,38.7C-7.9,39.4,-15.7,40.1,-21.3,36.9C-26.9,33.6,-30.2,26.5,-34.1,19.7C-38,12.9,-42.5,6.4,-43.4,-0.5C-44.2,-7.4,-41.4,-14.9,-37.1,-20.9C-32.8,-27,-26.9,-31.7,-20.4,-35.3C-14,-38.9,-7,-41.4,-0.2,-41.1C6.7,-40.8,13.4,-37.8,19.2,-33.9Z" width="100%" height="100%" transform="translate(50 50)" stroke-width="0" style="transition: all 0.3s ease 0s;" stroke="url(#sw-gradient)"></path>
              </svg>