<!--?xml version="1.0" standalone="no"?-->
              <svg id="sw-js-blob-svg" viewBox="0 0 100 100" xmlns="http://www.w3.org/2000/svg" version="1.1">
                    <defs> 
                        <linearGradient id="sw-gradient" x1="0" x2="1" y1="1" y2="0">
                            <stop id="stop1" stop-color="rgba(248, 117, 55, 1)" offset="0%"></stop>
                            <stop id="stop2" stop-color="rgba(251, 168, 31, 1)" offset="100%"></stop>
                        </linearGradient>
                    </defs>
                <path fill="none" d="M26.2,-31.9C32.6,-25.8,35.5,-16.3,36.7,-6.8C38,2.6,37.5,12,33.1,18.5C28.6,25,20.2,28.6,11.3,32.5C2.4,36.4,-6.9,40.6,-13.9,38C-20.8,35.5,-25.3,26.4,-27.5,18.1C-29.7,9.7,-29.5,2.3,-29.1,-6C-28.6,-14.2,-27.8,-23.2,-22.9,-29.6C-18,-35.9,-9,-39.6,0.4,-40.2C9.9,-40.7,19.8,-38,26.2,-31.9Z" width="100%" height="100%" transform="translate(50 50)" stroke-width="1" style="transition: all 0.3s ease 0s;" stroke="url(#sw-gradient)"></path>
              </svg>