<?xml version="1.0" standalone="no"?>
<svg xmlns:xlink="http://www.w3.org/1999/xlink" id="wave" style="transform:rotate(0deg); transition: 0.3s" viewBox="0 0 1440 360" version="1.1" xmlns="http://www.w3.org/2000/svg"><defs><linearGradient id="sw-gradient-0" x1="0" x2="0" y1="1" y2="0"><stop stop-color="rgba(255, 176, 0, 1)" offset="0%"/><stop stop-color="rgba(255, 176, 0, 1)" offset="100%"/></linearGradient></defs><path style="transform:translate(0, 0px); opacity:1" fill="url(#sw-gradient-0)" d="M0,144L60,132C120,120,240,96,360,102C480,108,600,144,720,162C840,180,960,180,1080,150C1200,120,1320,60,1440,48C1560,36,1680,72,1800,120C1920,168,2040,228,2160,216C2280,204,2400,120,2520,120C2640,120,2760,204,2880,252C3000,300,3120,312,3240,276C3360,240,3480,156,3600,132C3720,108,3840,144,3960,156C4080,168,4200,156,4320,180C4440,204,4560,264,4680,246C4800,228,4920,132,5040,78C5160,24,5280,12,5400,12C5520,12,5640,24,5760,30C5880,36,6000,36,6120,48C6240,60,6360,84,6480,132C6600,180,6720,252,6840,258C6960,264,7080,204,7200,150C7320,96,7440,48,7560,42C7680,36,7800,72,7920,90C8040,108,8160,108,8280,138C8400,168,8520,228,8580,258L8640,288L8640,360L8580,360C8520,360,8400,360,8280,360C8160,360,8040,360,7920,360C7800,360,7680,360,7560,360C7440,360,7320,360,7200,360C7080,360,6960,360,6840,360C6720,360,6600,360,6480,360C6360,360,6240,360,6120,360C6000,360,5880,360,5760,360C5640,360,5520,360,5400,360C5280,360,5160,360,5040,360C4920,360,4800,360,4680,360C4560,360,4440,360,4320,360C4200,360,4080,360,3960,360C3840,360,3720,360,3600,360C3480,360,3360,360,3240,360C3120,360,3000,360,2880,360C2760,360,2640,360,2520,360C2400,360,2280,360,2160,360C2040,360,1920,360,1800,360C1680,360,1560,360,1440,360C1320,360,1200,360,1080,360C960,360,840,360,720,360C600,360,480,360,360,360C240,360,120,360,60,360L0,360Z"/></svg>